<svg width="29" height="24" viewBox="0 0 29 24" fill="none" xmlns="http://www.w3.org/2000/svg">
<path d="M6.0825 2.66667C6.175 3.85333 6.40625 5.01333 6.77625 6.12L4.92625 7.72C4.29417 6.12 3.89333 4.42667 3.75458 2.66667H6.0825ZM21.2833 18.6933C22.5937 19.0133 23.935 19.2133 25.2917 19.2933V21.28C23.2567 21.16 21.2987 20.8133 19.4333 20.28L21.2833 18.6933ZM7.5625 0H2.16667C1.31875 0 0.625 0.6 0.625 1.33333C0.625 13.8533 12.3571 24 26.8333 24C27.6812 24 28.375 23.4 28.375 22.6667V18.0133C28.375 17.28 27.6812 16.68 26.8333 16.68C24.9217 16.68 23.0562 16.4133 21.3296 15.92C21.1754 15.8667 21.0058 15.8533 20.8517 15.8533C20.4508 15.8533 20.0654 15.9867 19.7571 16.24L16.3654 19.1733C12.0025 17.24 8.42583 14.16 6.20583 10.3867L9.5975 7.45333C10.0292 7.08 10.1525 6.56 9.98292 6.09333C9.4125 4.6 9.10417 3 9.10417 1.33333C9.10417 0.6 8.41042 0 7.5625 0Z" fill="white"/>
</svg>
